# Created by Open3D 
# object name: building
# number of vertices: 8
# number of triangles: 12
v -0.7 -1.2 -0.6
vn -0.608424 -0.354914 -0.709828
v 0.7 -1.2 -0.6
vn 0.608424 -0.354914 -0.709828
v -0.7 -1.2 0.6
vn -0.608424 -0.354914 0.709828
v 0.7 -1.2 0.6
vn 0.608424 -0.354914 0.709828
v -0.7 1.2 -0.6
vn -0.608424 0.354914 -0.709828
v 0.7 1.2 -0.6
vn 0.608424 0.354914 -0.709828
v -0.7 1.2 0.6
vn -0.608424 0.354914 0.709828
v 0.7 1.2 0.6
vn 0.608424 0.354914 0.709828
f 5//5 8//8 6//6
f 5//5 7//7 8//8
f 1//1 3//3 5//5
f 3//3 7//7 5//5
f 1//1 2//2 3//3
f 2//2 4//4 3//3
f 2//2 6//6 8//8
f 2//2 8//8 4//4
f 3//3 4//4 8//8
f 3//3 8//8 7//7
f 1//1 5//5 2//2
f 2//2 5//5 6//6
