# Created by Open3D 
# object name: tree
# number of vertices: 170
# number of triangles: 336
v 0 -0.8 0.8
vn 0 0 1
v 0 -0.8 -0.8
vn 0 0 -1
v 0.22 -0.8 0.8
vn 0.875569 -0.0384236 0.481563
v 0.212504 -0.74306 0.8
vn 0.855679 0.1895 0.481563
v 0.190526 -0.69 0.8
vn 0.777477 0.404509 0.481563
v 0.155563 -0.644437 0.8
vn 0.64629 0.591951 0.481563
v 0.11 -0.609474 0.8
vn 0.47106 0.739053 0.481563
v 0.0569402 -0.587496 0.8
vn 0.263728 0.83579 0.481563
v 1.34711e-17 -0.58 0.8
vn 0.0384236 0.875569 0.481563
v -0.0569402 -0.587496 0.8
vn -0.1895 0.855679 0.481563
v -0.11 -0.609474 0.8
vn -0.404509 0.777477 0.481563
v -0.155563 -0.644437 0.8
vn -0.591951 0.64629 0.481563
v -0.190526 -0.69 0.8
vn -0.739053 0.47106 0.481563
v -0.212504 -0.74306 0.8
vn -0.83579 0.263728 0.481563
v -0.22 -0.8 0.8
vn -0.875569 0.0384236 0.481563
v -0.212504 -0.85694 0.8
vn -0.855679 -0.1895 0.481563
v -0.190526 -0.91 0.8
vn -0.777477 -0.404509 0.481563
v -0.155563 -0.955563 0.8
vn -0.64629 -0.591951 0.481563
v -0.11 -0.990526 0.8
vn -0.47106 -0.739053 0.481563
v -0.0569402 -1.0125 0.8
vn -0.263728 -0.83579 0.481563
v -4.04133e-17 -1.02 0.8
vn -0.0384236 -0.875569 0.481563
v 0.0569402 -1.0125 0.8
vn 0.1895 -0.855679 0.481563
v 0.11 -0.990526 0.8
vn 0.404509 -0.777477 0.481563
v 0.155563 -0.955563 0.8
vn 0.591951 -0.64629 0.481563
v 0.190526 -0.91 0.8
vn 0.739053 -0.47106 0.481563
v 0.212504 -0.85694 0.8
vn 0.83579 -0.263728 0.481563
v 0.22 -0.8 0.533333
vn 1 -2.47534e-16 0
v 0.212504 -0.74306 0.533333
vn 0.965926 0.258819 0
v 0.190526 -0.69 0.533333
vn 0.866025 0.5 0
v 0.155563 -0.644437 0.533333
vn 0.707107 0.707107 0
v 0.11 -0.609474 0.533333
vn 0.5 0.866025 0
v 0.0569402 -0.587496 0.533333
vn 0.258819 0.965926 0
v 1.34711e-17 -0.58 0.533333
vn 2.52294e-16 1 0
v -0.0569402 -0.587496 0.533333
vn -0.258819 0.965926 0
v -0.11 -0.609474 0.533333
vn -0.5 0.866025 0
v -0.155563 -0.644437 0.533333
vn -0.707107 0.707107 0
v -0.190526 -0.69 0.533333
vn -0.866025 0.5 0
v -0.212504 -0.74306 0.533333
vn -0.965926 0.258819 0
v -0.22 -0.8 0.533333
vn -1 4.95068e-16 0
v -0.212504 -0.85694 0.533333
vn -0.965926 -0.258819 0
v -0.190526 -0.91 0.533333
vn -0.866025 -0.5 0
v -0.155563 -0.955563 0.533333
vn -0.707107 -0.707107 0
v -0.11 -0.990526 0.533333
vn -0.5 -0.866025 0
v -0.0569402 -1.0125 0.533333
vn -0.258819 -0.965926 0
v -4.04133e-17 -1.02 0.533333
vn -4.95068e-16 -1 0
v 0.0569402 -1.0125 0.533333
vn 0.258819 -0.965926 0
v 0.11 -0.990526 0.533333
vn 0.5 -0.866025 0
v 0.155563 -0.955563 0.533333
vn 0.707107 -0.707107 0
v 0.190526 -0.91 0.533333
vn 0.866025 -0.5 0
v 0.212504 -0.85694 0.533333
vn 0.965926 -0.258819 0
v 0.22 -0.8 0.266667
vn 1 -2.47534e-16 0
v 0.212504 -0.74306 0.266667
vn 0.965926 0.258819 0
v 0.190526 -0.69 0.266667
vn 0.866025 0.5 0
v 0.155563 -0.644437 0.266667
vn 0.707107 0.707107 0
v 0.11 -0.609474 0.266667
vn 0.5 0.866025 0
v 0.0569402 -0.587496 0.266667
vn 0.258819 0.965926 0
v 1.34711e-17 -0.58 0.266667
vn 2.42774e-16 1 0
v -0.0569402 -0.587496 0.266667
vn -0.258819 0.965926 0
v -0.11 -0.609474 0.266667
vn -0.5 0.866025 0
v -0.155563 -0.644437 0.266667
vn -0.707107 0.707107 0
v -0.190526 -0.69 0.266667
vn -0.866025 0.5 0
v -0.212504 -0.74306 0.266667
vn -0.965926 0.258819 0
v -0.22 -0.8 0.266667
vn -1 4.85547e-16 0
v -0.212504 -0.85694 0.266667
vn -0.965926 -0.258819 0
v -0.190526 -0.91 0.266667
vn -0.866025 -0.5 0
v -0.155563 -0.955563 0.266667
vn -0.707107 -0.707107 0
v -0.11 -0.990526 0.266667
vn -0.5 -0.866025 0
v -0.0569402 -1.0125 0.266667
vn -0.258819 -0.965926 0
v -4.04133e-17 -1.02 0.266667
vn -4.85547e-16 -1 0
v 0.0569402 -1.0125 0.266667
vn 0.258819 -0.965926 0
v 0.11 -0.990526 0.266667
vn 0.5 -0.866025 0
v 0.155563 -0.955563 0.266667
vn 0.707107 -0.707107 0
v 0.190526 -0.91 0.266667
vn 0.866025 -0.5 0
v 0.212504 -0.85694 0.266667
vn 0.965926 -0.258819 0
v 0.22 -0.8 0
vn 1 -2.28493e-16 0
v 0.212504 -0.74306 0
vn 0.965926 0.258819 0
v 0.190526 -0.69 0
vn 0.866025 0.5 0
v 0.155563 -0.644437 0
vn 0.707107 0.707107 0
v 0.11 -0.609474 0
vn 0.5 0.866025 0
v 0.0569402 -0.587496 0
vn 0.258819 0.965926 0
v 1.34711e-17 -0.58 0
vn 2.33253e-16 1 0
v -0.0569402 -0.587496 0
vn -0.258819 0.965926 0
v -0.11 -0.609474 0
vn -0.5 0.866025 0
v -0.155563 -0.644437 0
vn -0.707107 0.707107 0
v -0.190526 -0.69 0
vn -0.866025 0.5 0
v -0.212504 -0.74306 0
vn -0.965926 0.258819 0
v -0.22 -0.8 0
vn -1 4.76027e-16 0
v -0.212504 -0.85694 0
vn -0.965926 -0.258819 0
v -0.190526 -0.91 0
vn -0.866025 -0.5 0
v -0.155563 -0.955563 0
vn -0.707107 -0.707107 0
v -0.11 -0.990526 0
vn -0.5 -0.866025 0
v -0.0569402 -1.0125 0
vn -0.258819 -0.965926 0
v -4.04133e-17 -1.02 0
vn -4.76027e-16 -1 0
v 0.0569402 -1.0125 0
vn 0.258819 -0.965926 0
v 0.11 -0.990526 0
vn 0.5 -0.866025 0
v 0.155563 -0.955563 0
vn 0.707107 -0.707107 0
v 0.190526 -0.91 0
vn 0.866025 -0.5 0
v 0.212504 -0.85694 0
vn 0.965926 -0.258819 0
v 0.22 -0.8 -0.266667
vn 1 -2.47534e-16 0
v 0.212504 -0.74306 -0.266667
vn 0.965926 0.258819 0
v 0.190526 -0.69 -0.266667
vn 0.866025 0.5 0
v 0.155563 -0.644437 -0.266667
vn 0.707107 0.707107 0
v 0.11 -0.609474 -0.266667
vn 0.5 0.866025 0
v 0.0569402 -0.587496 -0.266667
vn 0.258819 0.965926 0
v 1.34711e-17 -0.58 -0.266667
vn 2.42774e-16 1 0
v -0.0569402 -0.587496 -0.266667
vn -0.258819 0.965926 0
v -0.11 -0.609474 -0.266667
vn -0.5 0.866025 0
v -0.155563 -0.644437 -0.266667
vn -0.707107 0.707107 0
v -0.190526 -0.69 -0.266667
vn -0.866025 0.5 0
v -0.212504 -0.74306 -0.266667
vn -0.965926 0.258819 0
v -0.22 -0.8 -0.266667
vn -1 4.85547e-16 0
v -0.212504 -0.85694 -0.266667
vn -0.965926 -0.258819 0
v -0.190526 -0.91 -0.266667
vn -0.866025 -0.5 0
v -0.155563 -0.955563 -0.266667
vn -0.707107 -0.707107 0
v -0.11 -0.990526 -0.266667
vn -0.5 -0.866025 0
v -0.0569402 -1.0125 -0.266667
vn -0.258819 -0.965926 0
v -4.04133e-17 -1.02 -0.266667
vn -4.85547e-16 -1 0
v 0.0569402 -1.0125 -0.266667
vn 0.258819 -0.965926 0
v 0.11 -0.990526 -0.266667
vn 0.5 -0.866025 0
v 0.155563 -0.955563 -0.266667
vn 0.707107 -0.707107 0
v 0.190526 -0.91 -0.266667
vn 0.866025 -0.5 0
v 0.212504 -0.85694 -0.266667
vn 0.965926 -0.258819 0
v 0.22 -0.8 -0.533333
vn 1 -2.66575e-16 0
v 0.212504 -0.74306 -0.533333
vn 0.965926 0.258819 0
v 0.190526 -0.69 -0.533333
vn 0.866025 0.5 0
v 0.155563 -0.644437 -0.533333
vn 0.707107 0.707107 0
v 0.11 -0.609474 -0.533333
vn 0.5 0.866025 0
v 0.0569402 -0.587496 -0.533333
vn 0.258819 0.965926 0
v 1.34711e-17 -0.58 -0.533333
vn 2.61815e-16 1 0
v -0.0569402 -0.587496 -0.533333
vn -0.258819 0.965926 0
v -0.11 -0.609474 -0.533333
vn -0.5 0.866025 0
v -0.155563 -0.644437 -0.533333
vn -0.707107 0.707107 0
v -0.190526 -0.69 -0.533333
vn -0.866025 0.5 0
v -0.212504 -0.74306 -0.533333
vn -0.965926 0.258819 0
v -0.22 -0.8 -0.533333
vn -1 5.04588e-16 0
v -0.212504 -0.85694 -0.533333
vn -0.965926 -0.258819 0
v -0.190526 -0.91 -0.533333
vn -0.866025 -0.5 0
v -0.155563 -0.955563 -0.533333
vn -0.707107 -0.707107 0
v -0.11 -0.990526 -0.533333
vn -0.5 -0.866025 0
v -0.0569402 -1.0125 -0.533333
vn -0.258819 -0.965926 0
v -4.04133e-17 -1.02 -0.533333
vn -5.04588e-16 -1 0
v 0.0569402 -1.0125 -0.533333
vn 0.258819 -0.965926 0
v 0.11 -0.990526 -0.533333
vn 0.5 -0.866025 0
v 0.155563 -0.955563 -0.533333
vn 0.707107 -0.707107 0
v 0.190526 -0.91 -0.533333
vn 0.866025 -0.5 0
v 0.212504 -0.85694 -0.533333
vn 0.965926 -0.258819 0
v 0.22 -0.8 -0.8
vn 0.875569 0.0384236 -0.481563
v 0.212504 -0.74306 -0.8
vn 0.83579 0.263728 -0.481563
v 0.190526 -0.69 -0.8
vn 0.739053 0.47106 -0.481563
v 0.155563 -0.644437 -0.8
vn 0.591951 0.64629 -0.481563
v 0.11 -0.609474 -0.8
vn 0.404509 0.777477 -0.481563
v 0.0569402 -0.587496 -0.8
vn 0.1895 0.855679 -0.481563
v 1.34711e-17 -0.58 -0.8
vn -0.0384236 0.875569 -0.481563
v -0.0569402 -0.587496 -0.8
vn -0.263728 0.83579 -0.481563
v -0.11 -0.609474 -0.8
vn -0.47106 0.739053 -0.481563
v -0.155563 -0.644437 -0.8
vn -0.64629 0.591951 -0.481563
v -0.190526 -0.69 -0.8
vn -0.777477 0.404509 -0.481563
v -0.212504 -0.74306 -0.8
vn -0.855679 0.1895 -0.481563
v -0.22 -0.8 -0.8
vn -0.875569 -0.0384236 -0.481563
v -0.212504 -0.85694 -0.8
vn -0.83579 -0.263728 -0.481563
v -0.190526 -0.91 -0.8
vn -0.739053 -0.47106 -0.481563
v -0.155563 -0.955563 -0.8
vn -0.591951 -0.64629 -0.481563
v -0.11 -0.990526 -0.8
vn -0.404509 -0.777477 -0.481563
v -0.0569402 -1.0125 -0.8
vn -0.1895 -0.855679 -0.481563
v -4.04133e-17 -1.02 -0.8
vn 0.0384236 -0.875569 -0.481563
v 0.0569402 -1.0125 -0.8
vn 0.263728 -0.83579 -0.481563
v 0.11 -0.990526 -0.8
vn 0.47106 -0.739053 -0.481563
v 0.155563 -0.955563 -0.8
vn 0.64629 -0.591951 -0.481563
v 0.190526 -0.91 -0.8
vn 0.777477 -0.404509 -0.481563
v 0.212504 -0.85694 -0.8
vn 0.855679 -0.1895 -0.481563
f 1//1 3//3 4//4
f 2//2 148//148 147//147
f 1//1 4//4 5//5
f 2//2 149//149 148//148
f 1//1 5//5 6//6
f 2//2 150//150 149//149
f 1//1 6//6 7//7
f 2//2 151//151 150//150
f 1//1 7//7 8//8
f 2//2 152//152 151//151
f 1//1 8//8 9//9
f 2//2 153//153 152//152
f 1//1 9//9 10//10
f 2//2 154//154 153//153
f 1//1 10//10 11//11
f 2//2 155//155 154//154
f 1//1 11//11 12//12
f 2//2 156//156 155//155
f 1//1 12//12 13//13
f 2//2 157//157 156//156
f 1//1 13//13 14//14
f 2//2 158//158 157//157
f 1//1 14//14 15//15
f 2//2 159//159 158//158
f 1//1 15//15 16//16
f 2//2 160//160 159//159
f 1//1 16//16 17//17
f 2//2 161//161 160//160
f 1//1 17//17 18//18
f 2//2 162//162 161//161
f 1//1 18//18 19//19
f 2//2 163//163 162//162
f 1//1 19//19 20//20
f 2//2 164//164 163//163
f 1//1 20//20 21//21
f 2//2 165//165 164//164
f 1//1 21//21 22//22
f 2//2 166//166 165//165
f 1//1 22//22 23//23
f 2//2 167//167 166//166
f 1//1 23//23 24//24
f 2//2 168//168 167//167
f 1//1 24//24 25//25
f 2//2 169//169 168//168
f 1//1 25//25 26//26
f 2//2 170//170 169//169
f 1//1 26//26 3//3
f 2//2 147//147 170//170
f 27//27 4//4 3//3
f 27//27 28//28 4//4
f 28//28 5//5 4//4
f 28//28 29//29 5//5
f 29//29 6//6 5//5
f 29//29 30//30 6//6
f 30//30 7//7 6//6
f 30//30 31//31 7//7
f 31//31 8//8 7//7
f 31//31 32//32 8//8
f 32//32 9//9 8//8
f 32//32 33//33 9//9
f 33//33 10//10 9//9
f 33//33 34//34 10//10
f 34//34 11//11 10//10
f 34//34 35//35 11//11
f 35//35 12//12 11//11
f 35//35 36//36 12//12
f 36//36 13//13 12//12
f 36//36 37//37 13//13
f 37//37 14//14 13//13
f 37//37 38//38 14//14
f 38//38 15//15 14//14
f 38//38 39//39 15//15
f 39//39 16//16 15//15
f 39//39 40//40 16//16
f 40//40 17//17 16//16
f 40//40 41//41 17//17
f 41//41 18//18 17//17
f 41//41 42//42 18//18
f 42//42 19//19 18//18
f 42//42 43//43 19//19
f 43//43 20//20 19//19
f 43//43 44//44 20//20
f 44//44 21//21 20//20
f 44//44 45//45 21//21
f 45//45 22//22 21//21
f 45//45 46//46 22//22
f 46//46 23//23 22//22
f 46//46 47//47 23//23
f 47//47 24//24 23//23
f 47//47 48//48 24//24
f 48//48 25//25 24//24
f 48//48 49//49 25//25
f 49//49 26//26 25//25
f 49//49 50//50 26//26
f 50//50 3//3 26//26
f 50//50 27//27 3//3
f 51//51 28//28 27//27
f 51//51 52//52 28//28
f 52//52 29//29 28//28
f 52//52 53//53 29//29
f 53//53 30//30 29//29
f 53//53 54//54 30//30
f 54//54 31//31 30//30
f 54//54 55//55 31//31
f 55//55 32//32 31//31
f 55//55 56//56 32//32
f 56//56 33//33 32//32
f 56//56 57//57 33//33
f 57//57 34//34 33//33
f 57//57 58//58 34//34
f 58//58 35//35 34//34
f 58//58 59//59 35//35
f 59//59 36//36 35//35
f 59//59 60//60 36//36
f 60//60 37//37 36//36
f 60//60 61//61 37//37
f 61//61 38//38 37//37
f 61//61 62//62 38//38
f 62//62 39//39 38//38
f 62//62 63//63 39//39
f 63//63 40//40 39//39
f 63//63 64//64 40//40
f 64//64 41//41 40//40
f 64//64 65//65 41//41
f 65//65 42//42 41//41
f 65//65 66//66 42//42
f 66//66 43//43 42//42
f 66//66 67//67 43//43
f 67//67 44//44 43//43
f 67//67 68//68 44//44
f 68//68 45//45 44//44
f 68//68 69//69 45//45
f 69//69 46//46 45//45
f 69//69 70//70 46//46
f 70//70 47//47 46//46
f 70//70 71//71 47//47
f 71//71 48//48 47//47
f 71//71 72//72 48//48
f 72//72 49//49 48//48
f 72//72 73//73 49//49
f 73//73 50//50 49//49
f 73//73 74//74 50//50
f 74//74 27//27 50//50
f 74//74 51//51 27//27
f 75//75 52//52 51//51
f 75//75 76//76 52//52
f 76//76 53//53 52//52
f 76//76 77//77 53//53
f 77//77 54//54 53//53
f 77//77 78//78 54//54
f 78//78 55//55 54//54
f 78//78 79//79 55//55
f 79//79 56//56 55//55
f 79//79 80//80 56//56
f 80//80 57//57 56//56
f 80//80 81//81 57//57
f 81//81 58//58 57//57
f 81//81 82//82 58//58
f 82//82 59//59 58//58
f 82//82 83//83 59//59
f 83//83 60//60 59//59
f 83//83 84//84 60//60
f 84//84 61//61 60//60
f 84//84 85//85 61//61
f 85//85 62//62 61//61
f 85//85 86//86 62//62
f 86//86 63//63 62//62
f 86//86 87//87 63//63
f 87//87 64//64 63//63
f 87//87 88//88 64//64
f 88//88 65//65 64//64
f 88//88 89//89 65//65
f 89//89 66//66 65//65
f 89//89 90//90 66//66
f 90//90 67//67 66//66
f 90//90 91//91 67//67
f 91//91 68//68 67//67
f 91//91 92//92 68//68
f 92//92 69//69 68//68
f 92//92 93//93 69//69
f 93//93 70//70 69//69
f 93//93 94//94 70//70
f 94//94 71//71 70//70
f 94//94 95//95 71//71
f 95//95 72//72 71//71
f 95//95 96//96 72//72
f 96//96 73//73 72//72
f 96//96 97//97 73//73
f 97//97 74//74 73//73
f 97//97 98//98 74//74
f 98//98 51//51 74//74
f 98//98 75//75 51//51
f 99//99 76//76 75//75
f 99//99 100//100 76//76
f 100//100 77//77 76//76
f 100//100 101//101 77//77
f 101//101 78//78 77//77
f 101//101 102//102 78//78
f 102//102 79//79 78//78
f 102//102 103//103 79//79
f 103//103 80//80 79//79
f 103//103 104//104 80//80
f 104//104 81//81 80//80
f 104//104 105//105 81//81
f 105//105 82//82 81//81
f 105//105 106//106 82//82
f 106//106 83//83 82//82
f 106//106 107//107 83//83
f 107//107 84//84 83//83
f 107//107 108//108 84//84
f 108//108 85//85 84//84
f 108//108 109//109 85//85
f 109//109 86//86 85//85
f 109//109 110//110 86//86
f 110//110 87//87 86//86
f 110//110 111//111 87//87
f 111//111 88//88 87//87
f 111//111 112//112 88//88
f 112//112 89//89 88//88
f 112//112 113//113 89//89
f 113//113 90//90 89//89
f 113//113 114//114 90//90
f 114//114 91//91 90//90
f 114//114 115//115 91//91
f 115//115 92//92 91//91
f 115//115 116//116 92//92
f 116//116 93//93 92//92
f 116//116 117//117 93//93
f 117//117 94//94 93//93
f 117//117 118//118 94//94
f 118//118 95//95 94//94
f 118//118 119//119 95//95
f 119//119 96//96 95//95
f 119//119 120//120 96//96
f 120//120 97//97 96//96
f 120//120 121//121 97//97
f 121//121 98//98 97//97
f 121//121 122//122 98//98
f 122//122 75//75 98//98
f 122//122 99//99 75//75
f 123//123 100//100 99//99
f 123//123 124//124 100//100
f 124//124 101//101 100//100
f 124//124 125//125 101//101
f 125//125 102//102 101//101
f 125//125 126//126 102//102
f 126//126 103//103 102//102
f 126//126 127//127 103//103
f 127//127 104//104 103//103
f 127//127 128//128 104//104
f 128//128 105//105 104//104
f 128//128 129//129 105//105
f 129//129 106//106 105//105
f 129//129 130//130 106//106
f 130//130 107//107 106//106
f 130//130 131//131 107//107
f 131//131 108//108 107//107
f 131//131 132//132 108//108
f 132//132 109//109 108//108
f 132//132 133//133 109//109
f 133//133 110//110 109//109
f 133//133 134//134 110//110
f 134//134 111//111 110//110
f 134//134 135//135 111//111
f 135//135 112//112 111//111
f 135//135 136//136 112//112
f 136//136 113//113 112//112
f 136//136 137//137 113//113
f 137//137 114//114 113//113
f 137//137 138//138 114//114
f 138//138 115//115 114//114
f 138//138 139//139 115//115
f 139//139 116//116 115//115
f 139//139 140//140 116//116
f 140//140 117//117 116//116
f 140//140 141//141 117//117
f 141//141 118//118 117//117
f 141//141 142//142 118//118
f 142//142 119//119 118//118
f 142//142 143//143 119//119
f 143//143 120//120 119//119
f 143//143 144//144 120//120
f 144//144 121//121 120//120
f 144//144 145//145 121//121
f 145//145 122//122 121//121
f 145//145 146//146 122//122
f 146//146 99//99 122//122
f 146//146 123//123 99//99
f 147//147 124//124 123//123
f 147//147 148//148 124//124
f 148//148 125//125 124//124
f 148//148 149//149 125//125
f 149//149 126//126 125//125
f 149//149 150//150 126//126
f 150//150 127//127 126//126
f 150//150 151//151 127//127
f 151//151 128//128 127//127
f 151//151 152//152 128//128
f 152//152 129//129 128//128
f 152//152 153//153 129//129
f 153//153 130//130 129//129
f 153//153 154//154 130//130
f 154//154 131//131 130//130
f 154//154 155//155 131//131
f 155//155 132//132 131//131
f 155//155 156//156 132//132
f 156//156 133//133 132//132
f 156//156 157//157 133//133
f 157//157 134//134 133//133
f 157//157 158//158 134//134
f 158//158 135//135 134//134
f 158//158 159//159 135//135
f 159//159 136//136 135//135
f 159//159 160//160 136//136
f 160//160 137//137 136//136
f 160//160 161//161 137//137
f 161//161 138//138 137//137
f 161//161 162//162 138//138
f 162//162 139//139 138//138
f 162//162 163//163 139//139
f 163//163 140//140 139//139
f 163//163 164//164 140//140
f 164//164 141//141 140//140
f 164//164 165//165 141//141
f 165//165 142//142 141//141
f 165//165 166//166 142//142
f 166//166 143//143 142//142
f 166//166 167//167 143//143
f 167//167 144//144 143//143
f 167//167 168//168 144//144
f 168//168 145//145 144//144
f 168//168 169//169 145//145
f 169//169 146//146 145//145
f 169//169 170//170 146//146
f 170//170 123//123 146//146
f 170//170 147//147 123//123
