ply
format ascii 1.0
comment Created by Open3D
element vertex 8
property double x
property double y
property double z
property double nx
property double ny
property double nz
element face 12
property list uchar uint vertex_indices
end_header
-0.491788 0.286314 -0.338269 -0.407357 0.696197 -0.591076
0.489286 0.282144 0.334695 0.408296 0.69615 0.590483
0.491651 0.286085 -0.338072 0.406484 0.699088 -0.588257
-0.489447 0.282411 0.334924 -0.402554 0.698888 0.59119
-0.497978 -0.296631 -0.347112 -0.413709 -0.693362 -0.589996
-0.494702 -0.291169 0.342431 -0.407453 -0.696223 0.590979
0.49802 -0.296701 -0.347172 0.40815 -0.696167 -0.590564
0.494675 -0.291125 0.342393 0.408571 -0.693227 0.593722
3 0 1 2
3 0 3 1
3 4 5 0
3 5 3 0
3 4 6 5
3 6 7 5
3 6 2 1
3 6 1 7
3 5 7 1
3 5 1 3
3 4 0 6
3 6 0 2
