# Created by Open3D 
# object name: generated_asset
# number of vertices: 8
# number of triangles: 12
v -0.491788 0.286314 -0.338269
vn -0.407357 0.696197 -0.591076
v 0.489286 0.282144 0.334695
vn 0.408296 0.69615 0.590483
v 0.491651 0.286085 -0.338072
vn 0.406484 0.699088 -0.588257
v -0.489447 0.282411 0.334924
vn -0.402554 0.698888 0.59119
v -0.497978 -0.296631 -0.347112
vn -0.413709 -0.693362 -0.589996
v -0.494702 -0.291169 0.342431
vn -0.407453 -0.696223 0.590979
v 0.49802 -0.296701 -0.347172
vn 0.40815 -0.696167 -0.590564
v 0.494675 -0.291125 0.342393
vn 0.408571 -0.693227 0.593722
f 1//1 2//2 3//3
f 1//1 4//4 2//2
f 5//5 6//6 1//1
f 6//6 4//4 1//1
f 5//5 7//7 6//6
f 7//7 8//8 6//6
f 7//7 3//3 2//2
f 7//7 2//2 8//8
f 6//6 8//8 2//2
f 6//6 2//2 4//4
f 5//5 1//1 7//7
f 7//7 1//1 3//3
